<svg width="0" height="0" class="hidden">
  <symbol fill="none" xmlns="http://www.w3.org/2000/svg" viewBox="0 0 15 15" id="telephone">
    <path d="M14.1429 11.1696C14.1429 11.0993 14.1429 11.029 14.1127 10.9587C14.0424 10.7478 13.5502 10.5268 13.3493 10.4263C12.7768 10.1049 12.1942 9.79352 11.6317 9.46205C11.3705 9.30134 11.0491 9 10.7377 9C10.125 9 9.23103 10.8181 8.68862 10.8181C8.41741 10.8181 8.06585 10.567 7.82478 10.4263C5.99665 9.41183 4.73103 8.14621 3.71652 6.31808C3.57589 6.07701 3.32478 5.72545 3.32478 5.45424C3.32478 4.91183 5.14286 4.01786 5.14286 3.40513C5.14286 3.09375 4.84152 2.77232 4.6808 2.51116C4.34933 1.94866 4.03795 1.36607 3.71652 0.793526C3.61607 0.592633 3.39509 0.100445 3.18415 0.0301323C3.11384 -1.78814e-06 3.04353 0 2.97321 0C2.61161 0 1.90848 0.160713 1.57701 0.311382C1.08482 0.52232 0.763393 1.08482 0.512277 1.53683C0.190848 2.12946 0 2.73214 0 3.40513C0 4.33928 0.381696 5.18304 0.69308 6.03683C0.914063 6.64955 1.18527 7.24219 1.52679 7.79464C2.58147 9.50223 4.64062 11.5614 6.34821 12.6161C6.90067 12.9576 7.4933 13.2288 8.10603 13.4498C8.95982 13.7612 9.80357 14.1429 10.7377 14.1429C11.4107 14.1429 12.0134 13.952 12.606 13.6306C13.058 13.3795 13.6205 13.058 13.8315 12.5658C13.9821 12.2344 14.1429 11.5313 14.1429 11.1696Z" fill="#7E5AFF"></path>
  </symbol>
  <symbol fill="none" xmlns="http://www.w3.org/2000/svg" viewBox="0 0 16 16" id="date">
    <path d="M9 4.17857C9 3.99777 8.85938 3.85715 8.67857 3.85715H8.03572C7.85491 3.85715 7.71429 3.99777 7.71429 4.17857V7.71428H5.46429C5.28348 7.71428 5.14286 7.85492 5.14286 8.03572V8.67857C5.14286 8.85938 5.28348 9 5.46429 9H8.67857C8.85938 9 9 8.85938 9 8.67857V4.17857ZM13.1786 7.71428C13.1786 10.7277 10.7277 13.1786 7.71429 13.1786C4.70089 13.1786 2.25 10.7277 2.25 7.71428C2.25 4.70089 4.70089 2.25 7.71429 2.25C10.7277 2.25 13.1786 4.70089 13.1786 7.71428ZM15.4286 7.71428C15.4286 3.45535 11.9732 0 7.71429 0C3.45536 0 0 3.45535 0 7.71428C0 11.9732 3.45536 15.4286 7.71429 15.4286C11.9732 15.4286 15.4286 11.9732 15.4286 7.71428Z" fill="#7E5AFF"></path>
  </symbol>
  <symbol fill="none" xmlns="http://www.w3.org/2000/svg" viewBox="0 0 16 13" id="service">
    <path d="M10.2757 7.07143L9.32143 9H6.10715L5.1529 7.07143H1.97879C1.99888 7.0212 2.00893 6.96094 2.02902 6.91071L4.15848 1.92857H11.2701L13.3996 6.91071C13.4196 6.96094 13.4297 7.0212 13.4498 7.07143H10.2757ZM15.4286 7.37277C15.4286 7.01116 15.3181 6.47879 15.1775 6.13728L12.7868 0.592636C12.6462 0.261162 12.2444 0 11.8929 0H3.53571C3.18415 0 2.78236 0.261162 2.64174 0.592636L0.251114 6.13728C0.110489 6.47879 0 7.01116 0 7.37277V12.2143C0 12.5658 0.29129 12.8571 0.642853 12.8571H14.7857C15.1373 12.8571 15.4286 12.5658 15.4286 12.2143V7.37277Z" fill="#7E5AFF"></path>
  </symbol>
  <symbol  xmlns="http://www.w3.org/2000/svg" viewBox="0 0 11 16" id="location">
    <path d="M7.71429 5.14286C7.71429 6.55915 6.55915 7.71429 5.14286 7.71429C3.72656 7.71429 2.57143 6.55915 2.57143 5.14286C2.57143 3.72656 3.72656 2.57143 5.14286 2.57143C6.55915 2.57143 7.71429 3.72656 7.71429 5.14286ZM10.2857 5.14286C10.2857 2.30022 7.98549 0 5.14286 0C2.30022 0 0 2.30022 0 5.14286C0 5.75558 0.0703125 6.38839 0.331473 6.94085L3.99777 14.7154C4.19866 15.1574 4.66071 15.4286 5.14286 15.4286C5.625 15.4286 6.08705 15.1574 6.29799 14.7154L9.95424 6.94085C10.2154 6.38839 10.2857 5.75558 10.2857 5.14286Z" ></path>
  </symbol>
</svg>