<svg width="0" height="0" class="hidden">
<svg   fill="none" xmlns="http://www.w3.org/2000/svg" viewBox="0 0 20 20" id="comma">
<path d="M18.125 10H15V7.5C15 6.12109 16.1211 5 17.5 5H17.8125C18.332 5 18.75 4.58203 18.75 4.0625V2.1875C18.75 1.66797 18.332 1.25 17.8125 1.25H17.5C14.0469 1.25 11.25 4.04688 11.25 7.5V16.875C11.25 17.9102 12.0898 18.75 13.125 18.75H18.125C19.1602 18.75 20 17.9102 20 16.875V11.875C20 10.8398 19.1602 10 18.125 10ZM6.875 10H3.75V7.5C3.75 6.12109 4.87109 5 6.25 5H6.5625C7.08203 5 7.5 4.58203 7.5 4.0625V2.1875C7.5 1.66797 7.08203 1.25 6.5625 1.25H6.25C2.79688 1.25 0 4.04688 0 7.5V16.875C0 17.9102 0.839844 18.75 1.875 18.75H6.875C7.91016 18.75 8.75 17.9102 8.75 16.875V11.875C8.75 10.8398 7.91016 10 6.875 10Z" fill="#5373FD"/>
</svg>
  <symbol  xmlns="http://www.w3.org/2000/svg" viewBox="0 0 20 32" id="facebook-f">
    <path d="M17.4463 18L18.335 12.2087H12.7782V8.45063C12.7782 6.86625 13.5544 5.32188 16.0432 5.32188H18.5694V0.39125C18.5694 0.39125 16.2769 0 14.085 0C9.50879 0 6.51754 2.77375 6.51754 7.795V12.2087H1.43066V18H6.51754V32H12.7782V18H17.4463Z" ></path>
  </symbol>
  <symbol  xmlns="http://www.w3.org/2000/svg" viewBox="0 0 28 32" id="linkedin">
    <path d="M26 2H1.99375C0.89375 2 0 2.90625 0 4.01875V27.9813C0 29.0938 0.89375 30 1.99375 30H26C27.1 30 28 29.0938 28 27.9813V4.01875C28 2.90625 27.1 2 26 2ZM8.4625 26H4.3125V12.6375H8.46875V26H8.4625ZM6.3875 10.8125C5.05625 10.8125 3.98125 9.73125 3.98125 8.40625C3.98125 7.08125 5.05625 6 6.3875 6C7.7125 6 8.79375 7.08125 8.79375 8.40625C8.79375 9.7375 7.71875 10.8125 6.3875 10.8125ZM24.0187 26H19.8687V19.5C19.8687 17.95 19.8375 15.9563 17.7125 15.9563C15.55 15.9563 15.2188 17.6438 15.2188 19.3875V26H11.0688V12.6375H15.05V14.4625H15.1062C15.6625 13.4125 17.0188 12.3062 19.0375 12.3062C23.2375 12.3062 24.0187 15.075 24.0187 18.675V26Z" ></path>
  </symbol>
  <symbol  xmlns="http://www.w3.org/2000/svg" viewBox="0 0 31 32" id="pinterest">
    <g clip-path="url(#clip0_3_8)">
      <path d="M31 16C31 24.5625 24.0625 31.5 15.5 31.5C13.9 31.5 12.3625 31.2563 10.9125 30.8062C11.5438 29.775 12.4875 28.0875 12.8375 26.7437C13.025 26.0187 13.8 23.0562 13.8 23.0562C14.3063 24.0187 15.7812 24.8375 17.35 24.8375C22.025 24.8375 25.3937 20.5375 25.3937 15.1938C25.3937 10.075 21.2125 6.24375 15.8375 6.24375C9.15 6.24375 5.59375 10.7312 5.59375 15.625C5.59375 17.9 6.80625 20.7313 8.7375 21.6313C9.03125 21.7688 9.1875 21.7062 9.25625 21.425C9.30625 21.2125 9.56875 20.1562 9.6875 19.6688C9.725 19.5125 9.70625 19.375 9.58125 19.225C8.95 18.4438 8.4375 17.0187 8.4375 15.6875C8.4375 12.2688 11.025 8.9625 15.4375 8.9625C19.2437 8.9625 21.9125 11.5562 21.9125 15.2688C21.9125 19.4625 19.7938 22.3687 17.0375 22.3687C15.5188 22.3687 14.375 21.1125 14.7437 19.5688C15.1812 17.725 16.025 15.7375 16.025 14.4062C16.025 13.2188 15.3875 12.225 14.0625 12.225C12.5063 12.225 11.2563 13.8313 11.2563 15.9875C11.2563 17.3625 11.7188 18.2875 11.7188 18.2875C11.7188 18.2875 10.1875 24.775 9.90625 25.9875C9.59375 27.325 9.71875 29.2125 9.85 30.4375C4.0875 28.1812 0 22.5688 0 16C0 7.4375 6.9375 0.5 15.5 0.5C24.0625 0.5 31 7.4375 31 16Z" ></path>
    </g>
    <defs>
      <clipPath id="clip0_3_8">
        <rect width="31" height="32" fill="white"></rect>
      </clipPath>
    </defs>
  </symbol>
  <symbol  xmlns="http://www.w3.org/2000/svg" viewBox="0 0 32 32" id="twitter">
    <path d="M28.7106 9.48225C28.7309 9.7665 28.7309 10.0508 28.7309 10.3351C28.7309 19.0051 22.132 28.9949 10.0711 28.9949C6.35531 28.9949 2.90356 27.9188 0 26.0508C0.527937 26.1117 1.0355 26.132 1.58375 26.132C4.64969 26.132 7.47206 25.0965 9.72587 23.33C6.84262 23.2691 4.42637 21.3808 3.59387 18.7818C4 18.8426 4.40606 18.8833 4.8325 18.8833C5.42131 18.8833 6.01019 18.802 6.55837 18.6599C3.55331 18.0508 1.29944 15.4112 1.29944 12.2234V12.1422C2.1725 12.6295 3.18781 12.9341 4.26388 12.9746C2.49738 11.7969 1.34006 9.78681 1.34006 7.51269C1.34006 6.29444 1.66488 5.17769 2.23344 4.20306C5.46187 8.18275 10.3147 10.7817 15.7563 11.066C15.6548 10.5787 15.5938 10.0711 15.5938 9.5635C15.5938 5.94925 18.5177 3.00513 22.1522 3.00513C24.0405 3.00513 25.7461 3.797 26.9441 5.07619C28.4263 4.79194 29.8476 4.24369 31.1065 3.49244C30.6191 5.01531 29.5836 6.2945 28.2232 7.10663C29.5431 6.96456 30.8222 6.599 31.9999 6.09144C31.1066 7.39088 29.9898 8.54819 28.7106 9.48225Z" ></path>
  </symbol>
  <symbol  xmlns="http://www.w3.org/2000/svg" viewBox="0 0 36 32" id="youtube">
    <path d="M34.3535 7.75519C33.9609 6.27706 32.8043 5.11294 31.3357 4.71788C28.6738 4 18 4 18 4C18 4 7.32629 4 4.66435 4.71788C3.19579 5.113 2.03916 6.27706 1.6466 7.75519C0.93335 10.4344 0.93335 16.0243 0.93335 16.0243C0.93335 16.0243 0.93335 21.6141 1.6466 24.2933C2.03916 25.7714 3.19579 26.8871 4.66435 27.2821C7.32629 28 18 28 18 28C18 28 28.6738 28 31.3357 27.2821C32.8043 26.8871 33.9609 25.7714 34.3535 24.2933C35.0667 21.6141 35.0667 16.0243 35.0667 16.0243C35.0667 16.0243 35.0667 10.4344 34.3535 7.75519ZM14.5091 21.0994V10.9491L23.4303 16.0244L14.5091 21.0994Z" ></path>
  </symbol>
</svg>