<svg width="0" height="0" class="hidden">
  <symbol fill="#ff0000" xmlns="http://www.w3.org/2000/svg" viewBox="0 0 24 24" id="heart">
    <path d="M12.39 20.87a.696.696 0 0 1-.78 0C9.764 19.637 2 14.15 2 8.973c0-6.68 7.85-7.75 10-3.25 2.15-4.5 10-3.43 10 3.25 0 5.178-7.764 10.664-9.61 11.895z" ></path>
  </symbol>
  <symbol version="1.0" xmlns="http://www.w3.org/2000/svg" preserveAspectRatio="xMidYMid meet" viewBox="0 0 1137.000000 1280.000000" id="pique">
    <metadata>Created by potrace 1.15, written by Peter Selinger 2001-2017</metadata>
    <g transform="translate(0.000000,1280.000000) scale(0.100000,-0.100000)" fill="#000000" stroke="none">
      <path d="M5627 12712 c-315 -496 -846 -1081 -1469 -1618 -336 -290 -572 -477
-1253 -994 -481 -365 -783 -597 -945 -729 -1167 -948 -1699 -1689 -1870 -2604
-175 -934 -88 -1745 250 -2333 107 -186 181 -284 330 -437 486 -502 1192 -767
2115 -793 682 -20 1270 122 1723 416 252 163 499 410 662 661 l42 64 -7 -100
c-26 -416 -91 -1059 -140 -1383 -200 -1321 -628 -2032 -1497 -2486 -256 -134
-533 -236 -903 -331 l-170 -44 3185 0 3185 0 -185 49 c-345 91 -577 175 -840
307 -536 267 -911 642 -1160 1158 -247 514 -387 1169 -480 2245 -31 362 -47
575 -44 578 1 2 27 -34 57 -80 305 -460 762 -781 1342 -944 124 -35 303 -69
475 -91 199 -24 698 -24 915 1 760 88 1302 313 1718 715 630 609 838 1543 622
2790 -162 927 -690 1674 -1860 2627 -174 142 -441 348 -933 721 -890 676
-1206 933 -1653 1349 -422 393 -837 879 -1099 1286 l-57 89 -56 -89z"></path>
    </g>
  </symbol>
  <symbol fill="#ff0000" xmlns="http://www.w3.org/2000/svg" viewBox="0 0 56 56" id="romb">
    <path d="M 27.9883 52 C 29.2774 52 29.9336 51.1328 31.2461 49.3516 L 45.2383 30.6719 C 45.8711 29.8047 46.2461 28.9375 46.2461 28 C 46.2461 27.0390 45.8711 26.1953 45.2383 25.3281 L 31.2461 6.6250 C 29.9336 4.8672 29.2774 4.0000 27.9883 4.0000 C 26.7227 4.0000 26.0664 4.8672 24.7539 6.6250 L 10.7617 25.3281 C 10.1289 26.1953 9.7539 27.0390 9.7539 28 C 9.7539 28.9375 10.1289 29.8047 10.7617 30.6719 L 24.7539 49.3516 C 26.0664 51.1328 26.7227 52 27.9883 52 Z"></path>
  </symbol>
  <symbol fill="none" xmlns="http://www.w3.org/2000/svg" viewBox="0 0 56 61" id="trefle">
    <path fill-rule="evenodd" clip-rule="evenodd" d="M42.7554 20.2885C41.0563 20.2885 39.4373 20.6593 37.9608 21.3285C39.3471 19.1393 40.1608 16.4871 40.1608 13.6269C40.1608 6.12171 34.5709 0.0374756 27.6759 0.0374756C20.7809 0.0374756 15.1913 6.12171 15.1913 13.6269C15.1913 16.3501 15.93 18.8839 17.197 21.01C15.9372 20.5447 14.5883 20.2885 13.1841 20.2885C6.28884 20.2885 0.699463 26.3727 0.699463 33.8778C0.699463 41.383 6.28884 47.4672 13.1841 47.4672C14.7413 47.4672 16.2308 47.1542 17.6056 46.5871C17.6053 46.5903 23.4158 44.8824 27.2354 37.3152V41.8714C27.2354 41.8714 25.277 56.2336 11.4706 57.8058H9.26719V60.0439H46.868V57.8058H44.6649C30.8584 56.2336 28.8999 41.8714 28.8999 41.8714V37.6219C29.6113 39.3271 33.5446 47.6648 42.3844 47.4578C42.5079 47.4609 42.6309 47.4672 42.7554 47.4672C49.6506 47.4672 55.24 41.383 55.24 33.8778C55.24 26.3727 49.6506 20.2885 42.7554 20.2885Z" fill="#1A1919"></path>
  </symbol>
</svg>